<?xml version="1.0" encoding="UTF-8"?>
<svg version="1.1" xmlns="http://www.w3.org/2000/svg" width="165" height="40">
<path d="M0 0 C54.45 0 108.9 0 165 0 C165 13.2 165 26.4 165 40 C110.55 40 56.1 40 0 40 C0 26.8 0 13.6 0 0 Z " fill="#FBFBFB" transform="translate(0,0)"/>
<path d="M0 0 C3.15762793 3.15762793 4.0896563 6.67586745 5 11 C4.71889572 14.93545987 3.52563708 17.95181732 1 21 C-2.0625 21.125 -2.0625 21.125 -5 21 C-5.66 21.99 -6.32 22.98 -7 24 C-6.34 24.66 -5.68 25.32 -5 26 C-5 26.99 -5 27.98 -5 29 C-8.3010299 28.40114059 -10.21425023 27.30314403 -12.75 25.125 C-13.67039062 24.35542969 -13.67039062 24.35542969 -14.609375 23.5703125 C-16 22 -16 22 -16 19 C-16.969375 18.855625 -17.93875 18.71125 -18.9375 18.5625 C-22 18 -22 18 -23 17 C-24.11375 16.87625 -25.2275 16.7525 -26.375 16.625 C-30 16 -30 16 -31.9375 14.8125 C-33.60701277 11.96450762 -33.50147692 10.2596 -33 7 C-30.66102404 2.46642931 -27.75495737 -0.99235133 -23 -3 C-13.92468935 -5.54291422 -7.9147055 -5.22669231 0 0 Z " fill="#6095CF" transform="translate(37,8)"/>
<path d="M0 0 C0.53625 0.515625 1.0725 1.03125 1.625 1.5625 C1.625 3.71884036 1.1784764 5.48696352 0.625 7.5625 C-0.365 7.5625 -1.355 7.5625 -2.375 7.5625 C-3.035 5.9125 -3.695 4.2625 -4.375 2.5625 C-5.035 2.5625 -5.695 2.5625 -6.375 2.5625 C-6.1275 3.490625 -6.1275 3.490625 -5.875 4.4375 C-5.375 6.5625 -5.375 6.5625 -5.375 8.5625 C-7.025 8.8925 -8.675 9.2225 -10.375 9.5625 C-13.375 4.8125 -13.375 4.8125 -13.375 2.5625 C-14.365 2.5625 -15.355 2.5625 -16.375 2.5625 C-16.045 4.2125 -15.715 5.8625 -15.375 7.5625 C-16.035 7.5625 -16.695 7.5625 -17.375 7.5625 C-17.375 8.2225 -17.375 8.8825 -17.375 9.5625 C-18.365 9.8925 -19.355 10.2225 -20.375 10.5625 C-20.375 8.9125 -20.375 7.2625 -20.375 5.5625 C-21.035 5.5625 -21.695 5.5625 -22.375 5.5625 C-21.385 8.8625 -20.395 12.1625 -19.375 15.5625 C-17.395 15.5625 -15.415 15.5625 -13.375 15.5625 C-13.375 14.9025 -13.375 14.2425 -13.375 13.5625 C-10.375 14.5625 -10.375 14.5625 -9.1875 16.625 C-8.919375 17.264375 -8.65125 17.90375 -8.375 18.5625 C-9.035 19.2225 -9.695 19.8825 -10.375 20.5625 C-11.0175235 22.63124034 -11.0175235 22.63124034 -11.375 24.5625 C-11.375 23.5725 -11.375 22.5825 -11.375 21.5625 C-12.344375 21.418125 -13.31375 21.27375 -14.3125 21.125 C-17.375 20.5625 -17.375 20.5625 -18.375 19.5625 C-19.48875 19.43875 -20.6025 19.315 -21.75 19.1875 C-25.375 18.5625 -25.375 18.5625 -27.3125 17.375 C-28.98201277 14.52700762 -28.87647692 12.8221 -28.375 9.5625 C-26.03602404 5.02892931 -23.12995737 1.57014867 -18.375 -0.4375 C-11.95871874 -2.23535062 -6.00231944 -3.63298282 0 0 Z " fill="#1BC7ED" transform="translate(32.375,5.4375)"/>
<path d="M0 0 C0.33 0 0.66 0 1 0 C1 6.27 1 12.54 1 19 C2.32 19 3.64 19 5 19 C5 14.38 5 9.76 5 5 C5.66 5 6.32 5 7 5 C7 9.62 7 14.24 7 19 C8.32 19 9.64 19 11 19 C11 14.05 11 9.1 11 4 C11.66 4 12.32 4 13 4 C13 4.99 13 5.98 13 7 C14.32 7 15.64 7 17 7 C17 6.34 17 5.68 17 5 C17.66 5 18.32 5 19 5 C18.75 6.875 18.75 6.875 18 9 C15.9375 10.25 15.9375 10.25 14 11 C14 13.31 14 15.62 14 18 C16.97 18.33 19.94 18.66 23 19 C23 14.38 23 9.76 23 5 C23.66 5.33 24.32 5.66 25 6 C25 10.29 25 14.58 25 19 C26.65 19 28.3 19 30 19 C29.67 18.34 29.34 17.68 29 17 C28.87854007 15.16962713 28.82456815 13.33435867 28.8125 11.5 C28.79832031 10.5203125 28.78414062 9.540625 28.76953125 8.53125 C29 6 29 6 31 4 C31.495 6.97 31.495 6.97 32 10 C31.34 10 30.68 10 30 10 C30.99 12.64 31.98 15.28 33 18 C35.31 18.33 37.62 18.66 40 19 C40.66 17.68 41.32 16.36 42 15 C42.042721 16.66611905 42.04063832 18.33382885 42 20 C41 21 41 21 38.890625 21.0625 C38.01921875 21.041875 37.1478125 21.02125 36.25 21 C32.65390705 20.95383048 29.52101387 21.25311827 26 22 C25.01 21.67 24.02 21.34 23 21 C21.39369216 20.99579179 19.78674519 21.05551256 18.18359375 21.15625 C17.25482422 21.20910156 16.32605469 21.26195313 15.36914062 21.31640625 C14.40169922 21.37699219 13.43425781 21.43757813 12.4375 21.5 C10.51983849 21.61961525 8.6018702 21.7344389 6.68359375 21.84375 C5.83337646 21.89724609 4.98315918 21.95074219 4.10717773 22.00585938 C2 22 2 22 0 21 C0 19.02 0 17.04 0 15 C-0.66 15 -1.32 15 -2 15 C-2.19392201 9.47322267 -1.7479503 5.24385089 0 0 Z " fill="#E7E7E7" transform="translate(114,9)"/>
<path d="M0 0 C4.75 0.75 4.75 0.75 7 3 C7 4.32 7 5.64 7 7 C7.99 6.67 8.98 6.34 10 6 C10.33 5.01 10.66 4.02 11 3 C10.01 2.67 9.02 2.34 8 2 C9.65 1.67 11.3 1.34 13 1 C16.44421518 4.7886367 18.01152998 7.96778898 19 13 C18.69375228 16.4452868 18.46226454 17.53773546 16 20 C16 19.01 16 18.02 16 17 C15.34 17 14.68 17 14 17 C13.34 18.32 12.68 19.64 12 21 C11.01 20.67 10.02 20.34 9 20 C9.66 18.68 10.32 17.36 11 16 C11.66 16 12.32 16 13 16 C13 15.34 13 14.68 13 14 C12.01 14.33 11.02 14.66 10 15 C8.31422289 14.38325228 6.64551962 13.71727778 5 13 C4.34 13 3.68 13 3 13 C2.01 13 1.02 13 0 13 C-0.66 12.34 -1.32 11.68 -2 11 C-3.32 10.34 -4.64 9.68 -6 9 C-2.7 8.67 0.6 8.34 4 8 C2.73025028 3.58477891 2.73025028 3.58477891 0 0 Z " fill="#338FD3" transform="translate(23,6)"/>
<path d="M0 0 C0.66 0.33 1.32 0.66 2 1 C2 5.95 2 10.9 2 16 C3.98 15.67 5.96 15.34 8 15 C8.99 15.33 9.98 15.66 11 16 C11 11.05 11 6.1 11 1 C11.66 0.67 12.32 0.34 13 0 C14.50156874 3.00313748 14.09281204 5.79067522 14.0625 9.125 C14.05347656 10.40632813 14.04445313 11.68765625 14.03515625 13.0078125 C14.02355469 13.99523438 14.01195313 14.98265625 14 16 C14.99 16 15.98 16 17 16 C17 11.71 17 7.42 17 3 C18.32 2.67 19.64 2.34 21 2 C20.67 2.99 20.34 3.98 20 5 C19.97045621 7.84042412 20.06590599 10.66508848 20.16015625 13.50390625 C20 16 20 16 18 18 C15.75341797 18.31884766 15.75341797 18.31884766 12.9921875 18.4140625 C12.00605469 18.45273437 11.01992187 18.49140625 10.00390625 18.53125 C8.45509766 18.57765625 8.45509766 18.57765625 6.875 18.625 C5.31458984 18.68300781 5.31458984 18.68300781 3.72265625 18.7421875 C1.14861689 18.83664766 -1.42541155 18.92221214 -4 19 C-4.33 18.01 -4.66 17.02 -5 16 C-3.35 16 -1.7 16 0 16 C-0.33 15.34 -0.66 14.68 -1 14 C-1.09632897 12.18958207 -1.12981533 10.37547247 -1.125 8.5625 C-1.12757812 7.59441406 -1.13015625 6.62632813 -1.1328125 5.62890625 C-1 3 -1 3 0 0 Z " fill="#EAEAEA" transform="translate(53,12)"/>
<path d="M0 0 C2.375 1.4375 2.375 1.4375 4 3 C4 5.15634036 3.5534764 6.92446352 3 9 C2.01 9 1.02 9 0 9 C-0.66 7.35 -1.32 5.7 -2 4 C-2.66 4 -3.32 4 -4 4 C-3.835 4.61875 -3.67 5.2375 -3.5 5.875 C-3 8 -3 8 -3 10 C-4.65 10.33 -6.3 10.66 -8 11 C-9.94140969 8.28202643 -11.01633931 6.70259051 -10.9375 3.3125 C-10 1 -10 1 -8.3125 -0.375 C-5.18421682 -1.22048194 -3.11595383 -0.84390416 0 0 Z " fill="#3EC1E6" transform="translate(30,4)"/>
<path d="M0 0 C1.65 0 3.3 0 5 0 C5.144375 0.94875 5.28875 1.8975 5.4375 2.875 C5.82935399 5.8934494 5.82935399 5.8934494 7 8 C4.69 8.66 2.38 9.32 0 10 C1.32 10.66 2.64 11.32 4 12 C4 12.66 4 13.32 4 14 C1.69 14.33 -0.62 14.66 -3 15 C-3.99 11.37 -4.98 7.74 -6 4 C-4.68 4 -3.36 4 -2 4 C-2 5.32 -2 6.64 -2 8 C-1.34 8 -0.68 8 0 8 C0 7.34 0 6.68 0 6 C0.66 6 1.32 6 2 6 C1.34 4.02 0.68 2.04 0 0 Z " fill="#1C89CC" transform="translate(15,7)"/>
<path d="M0 0 C1.65 0.99 3.3 1.98 5 3 C5.33 2.34 5.66 1.68 6 1 C6.33 1.66 6.66 2.32 7 3 C7.66 3 8.32 3 9 3 C9 3.66 9 4.32 9 5 C8.34 5 7.68 5 7 5 C6.67 6.32 6.34 7.64 6 9 C6.99 8.67 7.98 8.34 9 8 C9.33 7.34 9.66 6.68 10 6 C10.66 6 11.32 6 12 6 C12.042721 7.66611905 12.04063832 9.33382885 12 11 C11 12 11 12 8.93359375 12.09765625 C8.10988281 12.08605469 7.28617188 12.07445312 6.4375 12.0625 C5.61121094 12.05347656 4.78492188 12.04445313 3.93359375 12.03515625 C3.29550781 12.02355469 2.65742188 12.01195312 2 12 C1.34 10.35 0.68 8.7 0 7 C1.65 7 3.3 7 5 7 C5 6.34 5 5.68 5 5 C3.35 4.67 1.7 4.34 0 4 C0 2.68 0 1.36 0 0 Z " fill="#485EC5" transform="translate(27,17)"/>
<path d="M0 0 C3 1 3 1 4.1875 3.0625 C4.455625 3.701875 4.72375 4.34125 5 5 C4.34 5.66 3.68 6.32 3 7 C2.3574765 9.06874034 2.3574765 9.06874034 2 11 C2 10.01 2 9.02 2 8 C1.030625 7.855625 0.06125 7.71125 -0.9375 7.5625 C-4 7 -4 7 -5 6 C-7.32817964 5.63239269 -9.6618385 5.29758419 -12 5 C-7.59360646 2.79680323 -5.02549129 1.89075019 0 2 C0 1.34 0 0.68 0 0 Z " fill="#4EA8DF" transform="translate(19,19)"/>
<path d="M0 0 C0.33 0 0.66 0 1 0 C1.06058594 0.69867188 1.12117188 1.39734375 1.18359375 2.1171875 C1.26738281 3.02726562 1.35117188 3.93734375 1.4375 4.875 C1.51871094 5.77992187 1.59992188 6.68484375 1.68359375 7.6171875 C1.86989285 10.01110861 1.86989285 10.01110861 3 12 C7.65052872 12.26932521 7.65052872 12.26932521 12 11 C11.34 12.32 10.68 13.64 10 15 C7.36 15 4.72 15 2 15 C2 14.34 2 13.68 2 13 C1.01 13.66 0.02 14.32 -1 15 C-3.48046875 15.1953125 -3.48046875 15.1953125 -6.1875 15.125 C-7.08855469 15.10695313 -7.98960938 15.08890625 -8.91796875 15.0703125 C-9.60503906 15.04710937 -10.29210937 15.02390625 -11 15 C-10.67 14.34 -10.34 13.68 -10 13 C-7.03 13 -4.06 13 -1 13 C-0.67 8.71 -0.34 4.42 0 0 Z " fill="#E5E5E5" transform="translate(85,15)"/>
<path d="M0 0 C1.65 0 3.3 0 5 0 C5.33 0.99 5.66 1.98 6 3 C6.99 2.67 7.98 2.34 9 2 C8.25 6.75 8.25 6.75 6 9 C6 8.01 6 7.02 6 6 C5.34 6 4.68 6 4 6 C3.34 7.32 2.68 8.64 2 10 C1.01 9.67 0.02 9.34 -1 9 C-0.34 7.68 0.32 6.36 1 5 C1.66 5 2.32 5 3 5 C3 4.34 3 3.68 3 3 C2.01 3.33 1.02 3.66 0 4 C0 2.68 0 1.36 0 0 Z " fill="#7E97CA" transform="translate(33,17)"/>
<path d="M0 0 C1.98 1.32 3.96 2.64 6 4 C5.67 5.32 5.34 6.64 5 8 C4.38125 7.835 3.7625 7.67 3.125 7.5 C1.03936614 6.92365356 1.03936614 6.92365356 -1 7 C-1.99 7 -2.98 7 -4 7 C-4.66 6.34 -5.32 5.68 -6 5 C-7.32 4.34 -8.64 3.68 -10 3 C-6.7 2.67 -3.4 2.34 0 2 C0 1.34 0 0.68 0 0 Z " fill="#3AA2DD" transform="translate(27,12)"/>
<path d="M0 0 C2.29013653 3.4352048 2.17842973 4.985331 2 9 C3.65 8.67 5.3 8.34 7 8 C6.67 9.32 6.34 10.64 6 12 C4.37509046 12.02698189 2.75005367 12.04638757 1.125 12.0625 C-0.23238281 12.07990234 -0.23238281 12.07990234 -1.6171875 12.09765625 C-4 12 -4 12 -6 11 C-5.67 10.01 -5.34 9.02 -5 8 C-3.68 8 -2.36 8 -1 8 C-0.67 5.36 -0.34 2.72 0 0 Z " fill="#E9E9E9" transform="translate(105,19)"/>
<path d="M0 0 C0.928125 0.0825 1.85625 0.165 2.8125 0.25 C3.1425 0.91 3.4725 1.57 3.8125 2.25 C2.1625 2.58 0.5125 2.91 -1.1875 3.25 C-0.8575 4.9 -0.5275 6.55 -0.1875 8.25 C-0.8475 8.25 -1.5075 8.25 -2.1875 8.25 C-2.1875 8.91 -2.1875 9.57 -2.1875 10.25 C-3.1775 10.58 -4.1675 10.91 -5.1875 11.25 C-5.166875 10.46625 -5.14625 9.6825 -5.125 8.875 C-5.00065937 6.26885039 -5.00065937 6.26885039 -6.1875 4.25 C-4.36434338 1.00883268 -3.82500054 0.30000004 0 0 Z " fill="#10C0EA" transform="translate(17.1875,4.75)"/>
<path d="M0 0 C1.32 0 2.64 0 4 0 C4.0825 0.78375 4.165 1.5675 4.25 2.375 C4.72806339 5.14749104 4.72806339 5.14749104 7.0625 6.3125 C7.701875 6.539375 8.34125 6.76625 9 7 C9 7.99 9 8.98 9 10 C4.62140745 9.49477778 2.18348776 6.82172778 -1 4 C-0.67 2.68 -0.34 1.36 0 0 Z " fill="#3B66D0" transform="translate(23,27)"/>
<path d="M0 0 C2 2 2 2 2.1953125 4.6015625 C2.17210937 5.59929688 2.14890625 6.59703125 2.125 7.625 C2.10695312 8.62789062 2.08890625 9.63078125 2.0703125 10.6640625 C2.03550781 11.82035156 2.03550781 11.82035156 2 13 C1.01 13 0.02 13 -1 13 C-1.02686553 11.02090602 -1.04633375 9.04171029 -1.0625 7.0625 C-1.07410156 5.96035156 -1.08570313 4.85820312 -1.09765625 3.72265625 C-1 1 -1 1 0 0 Z " fill="#EAEAEA" transform="translate(59,12)"/>
<path d="M0 0 C0.66 0 1.32 0 2 0 C2 3.63 2 7.26 2 11 C1.01 11 0.02 11 -1 11 C-1.02688151 9.35425434 -1.04634123 7.70838587 -1.0625 6.0625 C-1.07410156 5.14597656 -1.08570312 4.22945312 -1.09765625 3.28515625 C-1 1 -1 1 0 0 Z " fill="#E8E8E8" transform="translate(91,14)"/>
<path d="M0 0 C2 0.875 2 0.875 3.3125 3.3125 C4 5.875 4 5.875 3 7.875 C1.35 7.545 -0.3 7.215 -2 6.875 C-1.67 5.225 -1.34 3.575 -1 1.875 C-1.99 1.545 -2.98 1.215 -4 0.875 C-2 -0.125 -2 -0.125 0 0 Z " fill="#30AEE5" transform="translate(35,7.125)"/>
<path d="M0 0 C2.475 0.99 2.475 0.99 5 2 C5 4.62113708 4.68707555 6.50935112 4 9 C3.01 9 2.02 9 1 9 C0.690625 8.21625 0.38125 7.4325 0.0625 6.625 C-0.92875038 4.07669872 -0.92875038 4.07669872 -2 2 C-1.34 2 -0.68 2 0 2 C0 1.34 0 0.68 0 0 Z " fill="#79C5E0" transform="translate(29,4)"/>
<path d="M0 0 C4.75 0.75 4.75 0.75 7 3 C7 4.32 7 5.64 7 7 C7.99 7 8.98 7 10 7 C10 7.66 10 8.32 10 9 C8.35 9 6.7 9 5 9 C5 8.34 5 7.68 5 7 C4.34 6.34 3.68 5.68 3 5 C2.67 4.01 2.34 3.02 2 2 C1.34 1.34 0.68 0.68 0 0 Z " fill="#1C6FBC" transform="translate(23,6)"/>
<path d="M0 0 C0.99 0.33 1.98 0.66 3 1 C3 1.99 3 2.98 3 4 C3.66 4 4.32 4 5 4 C5 4.66 5 5.32 5 6 C3.35 6 1.7 6 0 6 C-0.38218767 4.34385343 -0.71395102 2.67542976 -1 1 C-0.67 0.67 -0.34 0.34 0 0 Z " fill="#C9E1E7" transform="translate(7,15)"/>
<path d="M0 0 C1.65 0.99 3.3 1.98 5 3 C5.33 2.34 5.66 1.68 6 1 C6.33 1.66 6.66 2.32 7 3 C7.66 3 8.32 3 9 3 C9 3.66 9 4.32 9 5 C6.36 5 3.72 5 1 5 C0.34 3.68 -0.32 2.36 -1 1 C-0.67 0.67 -0.34 0.34 0 0 Z " fill="#1C4CB1" transform="translate(27,17)"/>
<path d="M0 0 C2.475 0.495 2.475 0.495 5 1 C5 1.66 5 2.32 5 3 C5.66 3 6.32 3 7 3 C6.34 4.32 5.68 5.64 5 7 C4.34 6.67 3.68 6.34 3 6 C3 4.35 3 2.7 3 1 C2.34 1 1.68 1 1 1 C0.67 1.99 0.34 2.98 0 4 C0 2.68 0 1.36 0 0 Z " fill="#8692C2" transform="translate(24,26)"/>
<path d="M0 0 C0.33 0.99 0.66 1.98 1 3 C-2.96 3 -6.92 3 -11 3 C-4.75 -0.125 -4.75 -0.125 0 0 Z " fill="#8DBFD3" transform="translate(18,21)"/>
<path d="M0 0 C0.391875 0.474375 0.78375 0.94875 1.1875 1.4375 C3.40808374 3.35179633 5.13375709 3.61266988 8 4 C8 4.66 8 5.32 8 6 C6.35 6.33 4.7 6.66 3 7 C0 2.25 0 2.25 0 0 Z " fill="#B8D4DE" transform="translate(19,8)"/>
<path d="M0 0 C0.66 0.66 1.32 1.32 2 2 C1.7578125 4.6015625 1.7578125 4.6015625 1.125 7.625 C0.81949219 9.12933594 0.81949219 9.12933594 0.5078125 10.6640625 C0.34023437 11.43492188 0.17265625 12.20578125 0 13 C-0.33 13 -0.66 13 -1 13 C-1.02686553 11.02090602 -1.04633375 9.04171029 -1.0625 7.0625 C-1.07410156 5.96035156 -1.08570312 4.85820312 -1.09765625 3.72265625 C-1 1 -1 1 0 0 Z " fill="#EEEEEE" transform="translate(97,12)"/>
<path d="M0 0 C1.65 0 3.3 0 5 0 C5.33 1.32 5.66 2.64 6 4 C4.02 4 2.04 4 0 4 C0 2.68 0 1.36 0 0 Z " fill="#B2C5DD" transform="translate(33,17)"/>
<path d="M0 0 C0.66 0 1.32 0 2 0 C2.33 1.65 2.66 3.3 3 5 C2.34 5 1.68 5 1 5 C1 5.66 1 6.32 1 7 C0.01 7.33 -0.98 7.66 -2 8 C-1.33333333 5.33333333 -0.66666667 2.66666667 0 0 Z " fill="#8CC7DA" transform="translate(14,8)"/>
<path d="M0 0 C0.66 0 1.32 0 2 0 C1.34 1.32 0.68 2.64 0 4 C-0.66 4 -1.32 4 -2 4 C-2.33 4.99 -2.66 5.98 -3 7 C-3.66 5.35 -4.32 3.7 -5 2 C-3.35 2 -1.7 2 0 2 C0 1.34 0 0.68 0 0 Z " fill="#2764D9" transform="translate(32,22)"/>
<path d="M0 0 C0.99 0.33 1.98 0.66 3 1 C3.125 3.875 3.125 3.875 3 7 C2.34 7.66 1.68 8.32 1 9 C0.63877119 7.68942607 0.28619689 6.37646376 -0.0625 5.0625 C-0.35833984 3.96615234 -0.35833984 3.96615234 -0.66015625 2.84765625 C-0.77230469 2.23792969 -0.88445313 1.62820313 -1 1 C-0.67 0.67 -0.34 0.34 0 0 Z " fill="#3D7AAF" transform="translate(10,10)"/>
<path d="M0 0 C1.65 0 3.3 0 5 0 C5.33 1.32 5.66 2.64 6 4 C4.125 3.6875 4.125 3.6875 2 3 C1.34 2.01 0.68 1.02 0 0 Z " fill="#4155B3" transform="translate(26,33)"/>
<path d="M0 0 C0.99 1.485 0.99 1.485 2 3 C4.56282742 3.72965366 4.56282742 3.72965366 7 4 C6.67 4.66 6.34 5.32 6 6 C4.33388095 6.042721 2.66617115 6.04063832 1 6 C0 5 0 5 -0.0625 2.4375 C-0.041875 1.633125 -0.02125 0.82875 0 0 Z " fill="#18BBE9" transform="translate(5,17)"/>
</svg>
